<svg id="Layer_1" enable-background="new 0 0 511.913 511.913" height="512" viewBox="0 0 511.913 511.913" width="512" xmlns="http://www.w3.org/2000/svg"><g><g><path d="m127.419 64.948c5.522 0 10-4.478 10-10v-.007c0-5.522-4.478-9.997-10-9.997s-10 4.481-10 10.004 4.477 10 10 10z"/><path d="m127.419 446.952c-5.522 0-10 4.481-10 10.004s4.478 10 10 10 10-4.478 10-10v-.008c0-5.523-4.478-9.996-10-9.996z"/><path d="m463.027 348.129-281.851-281.85c2.819-13.296.659-26.979-6.196-38.835-7.347-12.704-19.201-21.787-33.379-25.575-29.267-7.821-59.441 9.629-67.26 38.89-9.235 34.467-16.344 70.372-21.128 106.716-4.815 36.574-7.257 73.069-7.257 108.474 0 35.403 2.441 71.899 7.257 108.474 4.784 36.344 11.893 72.248 21.126 106.709 3.788 14.179 12.871 26.032 25.576 33.379 8.473 4.9 17.88 7.403 27.413 7.403 4.76 0 9.552-.624 14.272-1.886 14.178-3.788 26.032-12.871 33.379-25.575 7.347-12.705 9.306-27.51 5.518-41.687-.001-.003-.001-.005-.002-.007-8.25-30.789-14.477-61.927-18.508-92.548-4.002-30.402-6.031-62.116-6.031-94.263s2.029-63.86 6.03-94.261c1.129-8.574 2.448-17.19 3.917-25.826l27.254 27.254c-5.313 11.149-3.359 24.924 5.859 34.144l50.686 50.686c1.953 1.952 4.512 2.929 7.071 2.929s5.118-.977 7.071-2.929c3.905-3.905 3.905-10.237 0-14.143l-50.686-50.685c-3.898-3.899-3.898-10.244 0-14.143 3.905-3.905 3.905-10.237 0-14.143l-42.785-42.786c1.582-7.717 3.295-15.436 5.136-23.147l265.593 265.592c-8.085 5.344-17.595 8.212-27.572 8.212-13.403 0-25.959-5.175-35.355-14.572l-50.689-50.689c-3.906-3.904-10.236-3.904-14.143 0-3.905 3.905-3.905 10.237 0 14.143l50.689 50.689c13.174 13.175 30.753 20.43 49.498 20.43 18.744 0 36.323-7.255 49.497-20.43 3.905-3.906 3.905-10.238 0-14.144zm-301.852 99.798c2.409 9.017 1.163 18.433-3.509 26.512-4.673 8.08-12.212 13.856-21.228 16.266-9.02 2.41-18.433 1.163-26.512-3.509-8.08-4.672-13.856-12.211-16.268-21.234-9.01-33.628-15.947-68.669-20.618-104.15-4.701-35.712-7.085-71.329-7.085-105.863s2.384-70.151 7.085-105.863c4.671-35.481 11.608-70.523 20.62-104.157 2.409-9.016 8.186-16.555 16.266-21.228 5.389-3.116 11.372-4.708 17.435-4.708 3.027 0 6.074.396 9.077 1.199 9.016 2.409 16.555 8.186 21.228 16.266 4.672 8.079 5.918 17.495 3.511 26.505-8.476 31.631-14.874 63.632-19.019 95.115-4.115 31.263-6.202 63.854-6.202 96.871 0 33.016 2.087 65.608 6.202 96.873 4.145 31.481 10.543 63.479 19.017 95.105z"/><path d="m288.596 262.694h-.008c-5.522 0-9.996 4.478-9.996 10s4.481 10 10.004 10 10-4.478 10-10-4.477-10-10-10z"/></g></g></svg>